<?xml version="1.0" encoding="UTF-8"?>
<svg width="1200pt" height="1200pt" version="1.1" viewBox="0 0 1200 1200" xmlns="http://www.w3.org/2000/svg">
 <path d="m0 0v1200h1200v-1200zm1118 475.95h-319.37v-170.32h319.38l-0.003906 170.32zm-343.98 223.75h-347.98v-199.22h347.98zm-347.98-223.75v-170.32h347.98v170.32zm-53.352-170.32h28.754v170.32h-319.38v-170.32zm28.75 194.84v199.22h-319.38v-199.22zm-319.38 223.75h319.38v198.9l-319.38 0.003906zm343.98 0h347.98v198.9l-347.98 0.003906zm372.59 0h319.37v198.9l-319.37 0.003906zm0-24.527v-199.22h319.37v199.22zm-716.57 418.27v-170.16h319.38v170.16zm343.98 0v-170.16h347.98v170.16zm372.59-170.16h319.37v170.16h-319.37z"/>
</svg>
